<svg width="22" height="19" viewBox="0 0 22 19" fill="none" xmlns="http://www.w3.org/2000/svg">
<path d="M12 14.5425V16.6045H17V18.6045H5V16.6045H10V14.5425C8.0667 14.2987 6.28882 13.3578 5 11.8962C3.71119 10.4347 3.00003 8.5531 3 6.60449V0.604492H19V6.60449C19 8.5531 18.2888 10.4347 17 11.8962C15.7112 13.3578 13.9333 14.2987 12 14.5425ZM5 2.60449V6.60449C5 8.19579 5.63214 9.72191 6.75736 10.8471C7.88258 11.9724 9.4087 12.6045 11 12.6045C12.5913 12.6045 14.1174 11.9724 15.2426 10.8471C16.3679 9.72191 17 8.19579 17 6.60449V2.60449H5ZM0 2.60449H2V6.60449H0V2.60449ZM20 2.60449H22V6.60449H20V2.60449Z" />
</svg>