<svg width="20" height="21" viewBox="0 0 20 21" fill="none" xmlns="http://www.w3.org/2000/svg">
<path d="M15.0002 2.60352H19.0002C19.2655 2.60352 19.5198 2.70887 19.7074 2.89641C19.8949 3.08395 20.0002 3.3383 20.0002 3.60352V19.6035C20.0002 19.8687 19.8949 20.1231 19.7074 20.3106C19.5198 20.4982 19.2655 20.6035 19.0002 20.6035H1.00024C0.735028 20.6035 0.480674 20.4982 0.293137 20.3106C0.105601 20.1231 0.000244141 19.8687 0.000244141 19.6035V3.60352C0.000244141 3.3383 0.105601 3.08395 0.293137 2.89641C0.480674 2.70887 0.735028 2.60352 1.00024 2.60352H5.00024V0.603516H7.00024V2.60352H13.0002V0.603516H15.0002V2.60352ZM2.00024 8.60352V18.6035H18.0002V8.60352H2.00024ZM4.00024 10.6035H6.00024V12.6035H4.00024V10.6035ZM9.00024 10.6035H11.0002V12.6035H9.00024V10.6035ZM14.0002 10.6035H16.0002V12.6035H14.0002V10.6035Z" />
</svg>