<svg width="20" height="20" viewBox="0 0 20 20" fill="none" xmlns="http://www.w3.org/2000/svg">
<path d="M11.0007 6.60547V14.6055C11.0007 15.4011 10.6847 16.1642 10.1221 16.7268C9.55944 17.2894 8.79638 17.6055 8.00073 17.6055H5.83073C5.59483 18.273 5.13054 18.8356 4.51993 19.1938C3.90932 19.5521 3.19171 19.683 2.49394 19.5633C1.79618 19.4436 1.16319 19.0811 0.706859 18.5398C0.250529 17.9986 0.000244141 17.3134 0.000244141 16.6055C0.000244141 15.8975 0.250529 15.2124 0.706859 14.6711C1.16319 14.1298 1.79618 13.7673 2.49394 13.6477C3.19171 13.528 3.90932 13.6588 4.51993 14.0171C5.13054 14.3754 5.59483 14.938 5.83073 15.6055H8.00073C8.26595 15.6055 8.5203 15.5001 8.70784 15.3126C8.89537 15.125 9.00073 14.8707 9.00073 14.6055V6.60547C9.00073 5.80982 9.3168 5.04676 9.87941 4.48415C10.442 3.92154 11.2051 3.60547 12.0007 3.60547H15.0007V0.605469L20.0007 4.60547L15.0007 8.60547V5.60547H12.0007C11.7355 5.60547 11.4812 5.71083 11.2936 5.89836C11.1061 6.0859 11.0007 6.34025 11.0007 6.60547ZM3.00073 17.6055C3.26595 17.6055 3.5203 17.5001 3.70784 17.3126C3.89537 17.125 4.00073 16.8707 4.00073 16.6055C4.00073 16.3403 3.89537 16.0859 3.70784 15.8984C3.5203 15.7108 3.26595 15.6055 3.00073 15.6055C2.73552 15.6055 2.48116 15.7108 2.29363 15.8984C2.10609 16.0859 2.00073 16.3403 2.00073 16.6055C2.00073 16.8707 2.10609 17.125 2.29363 17.3126C2.48116 17.5001 2.73552 17.6055 3.00073 17.6055Z" />
</svg>